# xmcd CD database file
#
# Track frame offsets:
#	183
#	12170
#	24698
#	37225
#	49140
#	61168
#	75503
#	88590
#	97328
#	108208
#	119908
#	131063
#	145330
#	155605
#	166558
#	179403
#	192798
#	204930
#	218093
#	226658
#	239485
#	253363
#
# Disc length: 3519 seconds
#
# Revision: 2
# Processed by: cddbd v1.5PL3 Copyright (c) Steve Scherf et al.
# Submitted via: ACXtractor (MTCDDB.DLL V2003.12.21)
#
DISCID=360dbd16
DTITLE=Platters - The Very Best of the Platters
DYEAR=1993
DGENRE=Rock
TTITLE0=Smoke gets in Your eyes
TTITLE1=Twilight Time
TTITLE2=My Prayer
TTITLE3=Only you
TTITLE4=The Great Pretender
TTITLE5=Harbour Lights
TTITLE6=I'll Never smile again
TTITLE7=You'll Never Know
TTITLE8=It isn't Right
TTITLE9=Stormy weather
TTITLE10=You've got the Magic touch 
TTITLE11=If I did'nt Care
TTITLE12=I only Have eyes for you
TTITLE13=Ebb Tide
TTITLE14=To Each His Own
TTITLE15=My Blue Heaven
TTITLE16=Sleepy Lagoon
TTITLE17=I'm Sorry
TTITLE18=On a Slow Boat to China
TTITLE19=Remember when
TTITLE20=Sincerely
TTITLE21=Red Sails in the Sunset
EXTD=ID3G:  17 YEAR: 1993
EXTT0=
EXTT1=
EXTT2=
EXTT3=
EXTT4=
EXTT5=
EXTT6=
EXTT7=
EXTT8=
EXTT9=
EXTT10=
EXTT11=
EXTT12=
EXTT13=
EXTT14=
EXTT15=
EXTT16=
EXTT17=
EXTT18=
EXTT19=
EXTT20=
EXTT21=
PLAYORDER=
